<svg width="1226.67" height="682.667" viewBox="0 0 920 512" xmlns="http://www.w3.org/2000/svg" xmlns:xlink="http://www.w3.org/1999/xlink" overflow="hidden"><g transform="matrix(0.1 0 0 -0.1 0 512)"><path d="M5820 4779C5437 4746 4970 4562 4511 4264 4333 4147 4310 4127 4310 4079 4310 4036 4333 4005 4374 3994 4399 3988 4414 3995 4583 4083 4918 4257 5303 4266 5466 4103 5553 4016 5578 3878 5545 3649 5447 2950 4991 2258 4340 1821 4088 1652 3862 1571 3645 1570 3383 1570 3235 1682 3185 1917 3177 1954 3170 2009 3170 2038 3170 2081 3165 2096 3145 2115 3107 2154 3065 2149 3017 2098 2922 1999 2852 1760 2849 1532L2848 1455 2815 1525C2676 1813 2678 2224 2822 2695 2878 2879 2941 3033 3056 3267 3119 3394 3170 3503 3170 3509 3170 3549 3125 3590 3081 3590 3041 3590 2883 3471 2779 3362 2607 3182 2482 2993 2326 2675 2217 2454 2135 2255 2101 2130 1974 1663 2058 1136 2311 809 2622 407 3098 257 3688 376 4045 447 4431 623 4855 905 5657 1440 6214 2201 6460 3097 6481 3176 6509 3293 6520 3358 6550 3526 6548 3523 6577 3456 6646 3291 6679 3045 6660 2830 6632 2508 6537 2189 6359 1822 6316 1732 6280 1649 6280 1637 6281 1589 6339 1552 6386 1570 6471 1603 6694 1874 6818 2095 7148 2683 7247 3418 7068 3945 7000 4147 6906 4302 6761 4452 6567 4655 6363 4753 6079 4779 5954 4791 5957 4791 5820 4779Z" fill="#FFFFFF"/><path d="M4635 3926C4478 3880 4300 3787 4171 3684 4066 3600 3908 3432 3826 3318 3745 3207 3658 3032 3635 2935 3614 2848 3613 2711 3633 2647 3671 2527 3768 2454 3909 2438 3932 2435 3931 2433 3893 2407 3772 2323 3623 2336 3565 2433 3534 2486 3518 2590 3526 2679 3532 2744 3531 2750 3507 2774 3473 2808 3422 2809 3393 2778 3368 2751 3316 2601 3300 2510 3285 2431 3285 2294 3299 2220 3305 2190 3328 2128 3350 2083 3396 1989 3462 1922 3550 1881 3598 1858 3617 1855 3705 1856 3787 1856 3818 1861 3879 1883 4177 1991 4432 2243 4614 2611 4710 2804 4735 2891 4735 3025 4735 3124 4732 3140 4708 3186 4693 3213 4664 3252 4642 3272 4600 3310 4521 3350 4489 3350 4449 3350 4474 3370 4575 3420 4832 3546 4930 3467 4930 3133 4930 3042 4932 3032 4953 3012 4986 2981 5034 2983 5066 3017 5101 3055 5155 3171 5174 3251 5245 3540 5157 3826 4972 3917 4891 3956 4750 3960 4635 3926Z" fill="#FFFFFF"/></g></svg>